<svg width="20" height="20" fill="none" xmlns="http://www.w3.org/2000/svg">
  <path fill-rule="evenodd" clip-rule="evenodd" d="M16.596 5.486c.022.18.03.362.025.544a3.648 3.648 0 0 1-.099.779 3.93 3.93 0 0 0-.074.296 1.079 1.079 0 0 0-.062.173A4.75 4.75 0 0 1 14.1 9.904c-.46.213-.942.353-1.446.42a5.42 5.42 0 0 1-1.693 0 .45.45 0 0 1-.358-.24.138.138 0 0 0-.025-.087v-.025a1.658 1.658 0 0 1 .012-.247l.025-.111a.662.662 0 0 0 .05-.136.113.113 0 0 1 .012-.062c.051-.1.088-.208.11-.321a.27.27 0 0 0 .038-.124.215.215 0 0 0 .037-.111.334.334 0 0 1 .025-.111.088.088 0 0 0 .024-.074.235.235 0 0 0 .013-.075.138.138 0 0 0 .025-.086 2.19 2.19 0 0 1 .049-.247.138.138 0 0 0 .025-.087.118.118 0 0 1 .012-.074.393.393 0 0 0 .025-.16.258.258 0 0 1 .012-.112.499.499 0 0 0 .025-.173l.025-.296a.108.108 0 0 0 .018-.05 13.674 13.674 0 0 0-.006-1.038c.003-.151-.01-.3-.037-.445v-.05a.159.159 0 0 0-.012-.086c.215-.355.442-.703.68-1.044.062-.006.12.01.172.05l.235.185c.046.011.09.005.13-.019a.561.561 0 0 0 .068-.185c-.018-.106-.081-.155-.192-.148a.937.937 0 0 1-.265.018c-.024-.005-.036-.02-.037-.043a.134.134 0 0 1 .049-.068c.086-.066.168-.136.247-.21a.113.113 0 0 1 .136-.013.67.67 0 0 1 .167.204c.035.04.075.075.117.105a.13.13 0 0 0 .13-.03.837.837 0 0 0 .087-.149.08.08 0 0 0 0-.062.36.36 0 0 0-.155-.117 1.934 1.934 0 0 1-.284-.025c-.048-.04-.048-.081 0-.123.096-.081.203-.143.321-.186a.113.113 0 0 1 .13.044c.042.101.097.194.167.278.144.062.239.019.284-.13-.007-.092-.057-.148-.148-.167a1.355 1.355 0 0 0-.285-.037c-.026-.111.015-.185.124-.223.13-.02.26-.038.39-.055.088.01.175.03.259.062.14-.03.198-.117.173-.26a.225.225 0 0 0-.155-.111 4.908 4.908 0 0 0-.272.142 1.248 1.248 0 0 1-.271.068c-.157-.037-.225-.136-.204-.297.027-.067.058-.133.092-.197.025-.106-.016-.174-.123-.204-.227-.017-.291.08-.192.29.12.093.152.213.1.359a.469.469 0 0 1-.075.123c-.07.07-.136.065-.198-.012a.701.701 0 0 1 .025-.297.254.254 0 0 0 0-.111.274.274 0 0 0-.241-.08c-.108.09-.126.194-.056.315.076.05.133.116.173.197.013.17-.063.278-.228.328-.062.022-.095.001-.1-.062a.245.245 0 0 1 .044-.13c.038-.157-.022-.252-.18-.284a.237.237 0 0 0-.178.111.155.155 0 0 0 0 .087c.088.096.166.199.234.309a.14.14 0 0 1 0 .136.758.758 0 0 1-.401.34 16.06 16.06 0 0 1-.043.043 2.052 2.052 0 0 1-.526.766.853.853 0 0 1-.024-.136.138.138 0 0 0-.025-.086 1.306 1.306 0 0 1-.037-.173.138.138 0 0 0-.025-.087l-.024-.111a.088.088 0 0 0-.025-.074.085.085 0 0 0-.013-.062.088.088 0 0 0-.024-.074v-.012a.138.138 0 0 0-.025-.087.272.272 0 0 0-.037-.124 1.314 1.314 0 0 0-.087-.271.665.665 0 0 0-.024-.087.352.352 0 0 0-.037-.099 3.606 3.606 0 0 0-.136-.37.187.187 0 0 0-.037-.087.405.405 0 0 0-.05-.124.187.187 0 0 0-.037-.086 11.406 11.406 0 0 0-1.112-2.015L9.255 1c.51.25 1.038.458 1.582.624.8.203 1.604.393 2.41.569.694.143 1.332.41 1.916.803.838.619 1.316 1.449 1.433 2.49Z" fill="#FEAE45"/>
  <path fill-rule="evenodd" clip-rule="evenodd" d="M10.652 5.412c.024.092.057.178.099.26v.012a6.634 6.634 0 0 0-.408 1.075.46.46 0 0 0-.05.16 5.626 5.626 0 0 0-.197.853.801.801 0 0 0-.037.21c0 .061-.009.119-.025.174a.66.66 0 0 0-.025.197 8.677 8.677 0 0 0-.043.42c-.013.359-.02.717-.018 1.076a7.522 7.522 0 0 0-2.2-1.28 10.73 10.73 0 0 0-5.772-.42c-.315.07-.624.16-.927.272-.017.01-.034.008-.049-.006.235-.233.464-.472.686-.717a9.241 9.241 0 0 0 1.372-2.212 8.49 8.49 0 0 1 .951-1.52c.683-.82 1.563-1.23 2.639-1.23 1.831-.086 3.127.698 3.887 2.355.036.11.075.217.117.321Z" fill="#FFAF45"/>
  <path fill-rule="evenodd" clip-rule="evenodd" d="M11.085 5.696c-.009 0-.013.004-.013.013-.01.004-.014.012-.012.024-.018.006-.026.019-.025.037-.051.084-.113.16-.185.229.007.005.01.01.012.019a.373.373 0 0 0-.068.11 8.545 8.545 0 0 0-.562 2.571c-.015.32-.015.641 0 .964a.04.04 0 0 0-.019.025.918.918 0 0 0 .007.26c.004.055.012.109.024.16a1.73 1.73 0 0 1-.03.42c-.017.045-.048.06-.093.044a.47.47 0 0 1-.173-.377v-.346c-.001-.359.005-.717.018-1.075.011-.143.026-.283.043-.42a.523.523 0 0 0 .025-.198.627.627 0 0 0 .025-.173.44.44 0 0 0 .037-.21c.044-.291.11-.575.198-.853a.455.455 0 0 0 .049-.16c.105-.371.24-.73.408-1.076a1.75 1.75 0 0 0 .222-.37.138.138 0 0 0 .025-.087l.012-.05c.233-.214.408-.47.526-.766l.043-.043a.758.758 0 0 0 .401-.34.14.14 0 0 0 0-.136 2.122 2.122 0 0 0-.234-.31.155.155 0 0 1 0-.086.237.237 0 0 1 .179-.11c.157.031.217.126.18.283a.245.245 0 0 0-.044.13c.004.063.037.084.099.062.165-.05.241-.159.228-.328a.502.502 0 0 0-.173-.197c-.07-.12-.052-.226.056-.315a.274.274 0 0 1 .241.08.255.255 0 0 1 0 .111.701.701 0 0 0-.025.297c.062.077.128.081.198.012a.469.469 0 0 0 .074-.123c.053-.146.02-.266-.099-.359-.1-.21-.035-.307.192-.29.107.03.148.098.123.204-.034.064-.065.13-.092.197-.02.161.047.26.204.297.093-.012.184-.035.271-.068.09-.05.18-.098.272-.142.069.014.12.051.155.111.025.143-.032.23-.173.26a1.14 1.14 0 0 0-.26-.062c-.13.017-.26.035-.389.055-.11.038-.15.112-.123.223.096.002.19.015.284.037.091.02.14.075.148.167-.045.149-.14.192-.284.13a1.053 1.053 0 0 1-.167-.278.113.113 0 0 0-.13-.044 1.042 1.042 0 0 0-.321.186c-.048.042-.048.083 0 .123.094.015.188.024.284.025a.36.36 0 0 1 .155.117.08.08 0 0 1 0 .062.837.837 0 0 1-.087.148.13.13 0 0 1-.13.031.706.706 0 0 1-.117-.105.67.67 0 0 0-.167-.204.113.113 0 0 0-.136.013 2.994 2.994 0 0 1-.247.21.135.135 0 0 0-.05.068c.002.024.014.038.038.043.089.007.178 0 .265-.018.11-.007.174.042.192.148a.561.561 0 0 1-.068.185.167.167 0 0 1-.13.019l-.235-.186a.245.245 0 0 0-.173-.05c-.237.342-.464.69-.68 1.045Z" fill="#B30A15"/>
  <path fill-rule="evenodd" clip-rule="evenodd" d="M10.343 3.027c.02.025.032.053.037.086a.087.087 0 0 1-.037-.086Z" fill="#FFE1BB"/>
  <path fill-rule="evenodd" clip-rule="evenodd" d="M10.43 3.237c.019.025.031.054.037.086a.087.087 0 0 1-.037-.086Z" fill="#FFE1B9"/>
  <path fill-rule="evenodd" clip-rule="evenodd" d="M10.603 3.694c.017.03.029.063.037.099a.124.124 0 0 1-.037-.099Z" fill="#FFDBAC"/>
  <path fill-rule="evenodd" clip-rule="evenodd" d="M11.406 3.83c.17.013.241.104.216.272-.068.212-.171.229-.309.05-.083-.145-.052-.252.093-.322Z" fill="#B30B15"/>
  <path fill-rule="evenodd" clip-rule="evenodd" d="M10.664 3.88c.039.086.068.177.087.271a1.302 1.302 0 0 1-.087-.271Z" fill="#FFDAA9"/>
  <path fill-rule="evenodd" clip-rule="evenodd" d="M10.75 4.151a.272.272 0 0 1 .038.124.272.272 0 0 1-.037-.124Z" fill="#FFD7A3"/>
  <path fill-rule="evenodd" clip-rule="evenodd" d="M10.788 4.275a.138.138 0 0 1 .025.087.138.138 0 0 1-.025-.087Z" fill="#FFD9A7"/>
  <path fill-rule="evenodd" clip-rule="evenodd" d="M10.813 4.374c.02.02.027.044.024.074a.088.088 0 0 1-.024-.074Z" fill="#FFD9A8"/>
  <path fill-rule="evenodd" clip-rule="evenodd" d="M10.85 4.51c.02.02.027.044.024.074a.088.088 0 0 1-.024-.074Z" fill="#FFD8A5"/>
  <path fill-rule="evenodd" clip-rule="evenodd" d="M10.9 4.695a.138.138 0 0 1 .024.087.138.138 0 0 1-.025-.087Z" fill="#FFD6A1"/>
  <path fill-rule="evenodd" clip-rule="evenodd" d="M10.961 4.955a.138.138 0 0 1 .025.086.137.137 0 0 1-.025-.086Z" fill="#FFD195"/>
  <path fill-rule="evenodd" clip-rule="evenodd" d="M10.998 5.227a.138.138 0 0 1-.025.086.138.138 0 0 1 .025-.086Z" fill="#D5737B"/>
  <path fill-rule="evenodd" clip-rule="evenodd" d="M10.652 5.412c.042.081.075.168.099.26a1.218 1.218 0 0 1-.099-.26Z" fill="#FFD5A0"/>
  <path fill-rule="evenodd" clip-rule="evenodd" d="M16.596 5.486a.028.028 0 0 1 .019.012c.02.18.023.357.006.532a3.603 3.603 0 0 0-.025-.544Z" fill="#FFECD4"/>
  <path fill-rule="evenodd" clip-rule="evenodd" d="M11.06 5.733c0 .02-.008.032-.025.037 0-.018.008-.03.025-.037Z" fill="#E29BA1"/>
  <path fill-rule="evenodd" clip-rule="evenodd" d="M11.072 5.709c0-.009.004-.013.013-.013a.159.159 0 0 1 .012.087l-.025-.074Z" fill="#FECC90"/>
  <path fill-rule="evenodd" clip-rule="evenodd" d="M11.097 5.832c.027.145.04.294.037.445a6.969 6.969 0 0 1-.037-.445Z" fill="#FFD8A6"/>
  <path fill-rule="evenodd" clip-rule="evenodd" d="M10.862 6.018c.018.107.034.214.05.32a.67.67 0 0 0 .024.137v.012a.67.67 0 0 0 .025.136v.037c.006.112.015.223.025.334.002.227-.002.453-.013.68.002.066-.003.132-.012.197a.393.393 0 0 0-.025.161.191.191 0 0 0-.012.087.272.272 0 0 0-.037.123.457.457 0 0 1-.037.16.138.138 0 0 0-.025.087c-.033.08-.062.162-.086.247a4.077 4.077 0 0 1-.495.915c-.01-.317-.014-.634-.012-.952a8.545 8.545 0 0 1 .562-2.57.373.373 0 0 1 .068-.111Z" fill="#FEAE45"/>
  <path fill-rule="evenodd" clip-rule="evenodd" d="M10.912 6.339a.24.24 0 0 1 .024.136.67.67 0 0 1-.024-.136Z" fill="#FFD49D"/>
  <path fill-rule="evenodd" clip-rule="evenodd" d="M18.784 7.068a2.539 2.539 0 0 0-.05.297c-.035.316-.065.634-.092.951-.014.303.007.604.062.902.225.839.322 1.691.29 2.559-.014.08-.022.162-.025.247-.087.912-.503 1.631-1.248 2.156a5.492 5.492 0 0 1-2.62 1.001c-1.627.092-2.902-.528-3.825-1.86a5.557 5.557 0 0 1-.352-.605c0-.019-.008-.031-.025-.037a1.987 1.987 0 0 1-.123-.272.188.188 0 0 0-.037-.087 6.68 6.68 0 0 1-.1-.26.11.11 0 0 0-.036-.073v-.025a2.894 2.894 0 0 0-.1-.284.088.088 0 0 0-.024-.074v-.013a.551.551 0 0 0-.037-.173 1.293 1.293 0 0 1 0-.346.271.271 0 0 0 .037-.123.626.626 0 0 1 .37-.353 1.53 1.53 0 0 1 .575-.092 7.527 7.527 0 0 0 4.122-.921 10.851 10.851 0 0 0 1.73-1.36 19.42 19.42 0 0 0 1.131-1.204c.14-.187.286-.369.439-.544l.012.062a7.159 7.159 0 0 0-.074.531Z" fill="#FFAF45"/>
  <path fill-rule="evenodd" clip-rule="evenodd" d="M10.936 6.487a.24.24 0 0 1 .025.136.67.67 0 0 1-.025-.136Z" fill="#FFDFB5"/>
  <path fill-rule="evenodd" clip-rule="evenodd" d="M16.56 6.635a.286.286 0 0 1-.038.174l.037-.174Z" fill="#FFE9CC"/>
  <path fill-rule="evenodd" clip-rule="evenodd" d="M10.343 6.76a.455.455 0 0 1-.05.16.46.46 0 0 1 .05-.16Z" fill="#D75429"/>
  <path fill-rule="evenodd" clip-rule="evenodd" d="M10.961 6.66c.022.109.034.22.037.334h-.012c-.01-.111-.019-.222-.025-.334Z" fill="#FFDBAD"/>
  <path fill-rule="evenodd" clip-rule="evenodd" d="M16.448 7.105a.364.364 0 0 1-.062.173c.016-.06.037-.118.062-.173Z" fill="#FFE9CD"/>
  <path fill-rule="evenodd" clip-rule="evenodd" d="M10.986 6.994h.012c.002.202 0 .404-.006.605a.227.227 0 0 1-.019.075c.011-.227.015-.453.013-.68Z" fill="#FC8"/>
  <path fill-rule="evenodd" clip-rule="evenodd" d="M18.784 7.068c0 .075-.007.149-.019.222a.13.13 0 0 1-.03.075c.01-.102.027-.2.049-.297Z" fill="#FFEED8"/>
  <path fill-rule="evenodd" clip-rule="evenodd" d="M11.146 7.093c.002.074 0 .148-.006.222a.108.108 0 0 1-.018.05c.003-.093.011-.184.024-.272Z" fill="#FFC376"/>
  <path fill-rule="evenodd" clip-rule="evenodd" d="M11.097 7.661a.499.499 0 0 1-.025.173.499.499 0 0 1 .025-.173Z" fill="#FFD296"/>
  <path fill-rule="evenodd" clip-rule="evenodd" d="M10.096 7.772a.44.44 0 0 1-.037.21.801.801 0 0 1 .037-.21Z" fill="#D45027"/>
  <path fill-rule="evenodd" clip-rule="evenodd" d="M10.961 7.871a.393.393 0 0 1-.025.161.393.393 0 0 1 .025-.16Z" fill="#FFE3BF"/>
  <path fill-rule="evenodd" clip-rule="evenodd" d="M11.06 7.945a.393.393 0 0 1-.025.161.393.393 0 0 1 .025-.16Z" fill="#FFC477"/>
  <path fill-rule="evenodd" clip-rule="evenodd" d="M10.924 8.118a.272.272 0 0 1-.037.124.272.272 0 0 1 .037-.124Z" fill="#FFDCAF"/>
  <path fill-rule="evenodd" clip-rule="evenodd" d="M11.023 8.18a.137.137 0 0 1-.025.087.138.138 0 0 1 .025-.087Z" fill="#FFCF91"/>
  <path fill-rule="evenodd" clip-rule="evenodd" d="M10.034 8.156a.523.523 0 0 1-.025.197.66.66 0 0 1 .025-.197Z" fill="#DC602C"/>
  <path fill-rule="evenodd" clip-rule="evenodd" d="M9.626 10.01c.02.08.029.163.025.247a.503.503 0 0 1-.198.34 8.982 8.982 0 0 0-3.052 3.355c-.018.005-.026.018-.025.037-.213.43-.382.88-.507 1.347a.154.154 0 0 0-.037.099v.037a.028.028 0 0 0-.018.012 11.864 11.864 0 0 0-.229 1.211.028.028 0 0 0-.019.013c-.016.11-.027.222-.03.333-.028.23-.044.46-.05.692a.162.162 0 0 0-.018.062c-.007.235-.009.47-.007.705 0 .03-.013.038-.037.024a5.822 5.822 0 0 0-.71-1.248 10.043 10.043 0 0 0-.544-.642 52.898 52.898 0 0 1-1.335-1.385 5.776 5.776 0 0 1-.853-1.26 3.875 3.875 0 0 1-.315-1.903 1.49 1.49 0 0 0 .025-.173 3.704 3.704 0 0 1 .587-1.595c.94-1.387 2.253-2.02 3.936-1.897.945.094 1.831.374 2.657.84.247.16.467.352.662.575.04.053.071.111.092.173Z" fill="#FFAF45"/>
  <path fill-rule="evenodd" clip-rule="evenodd" d="M10.85 8.403a.138.138 0 0 1-.025.086.138.138 0 0 1 .025-.086Z" fill="#FFD7A4"/>
  <path fill-rule="evenodd" clip-rule="evenodd" d="M10.825 8.49a.735.735 0 0 1-.086.246c.024-.085.053-.167.086-.247Z" fill="#FFD9A7"/>
  <path fill-rule="evenodd" clip-rule="evenodd" d="M10.949 8.514a.138.138 0 0 1-.025.087.138.138 0 0 1 .025-.087Z" fill="#FFD39A"/>
  <path fill-rule="evenodd" clip-rule="evenodd" d="M10.912 8.675a.088.088 0 0 1-.025.074.088.088 0 0 1 .024-.074ZM10.862 8.86a.215.215 0 0 1-.037.111c0-.042.013-.08.037-.111Z" fill="#FFD195"/>
  <path fill-rule="evenodd" clip-rule="evenodd" d="M10.825 8.971a.27.27 0 0 1-.037.124.273.273 0 0 1 .037-.124Z" fill="#FFD49C"/>
  <path fill-rule="evenodd" clip-rule="evenodd" d="M10.788 9.095c-.023.113-.06.22-.111.321.032-.11.07-.217.11-.321Z" fill="#FFD093"/>
  <path fill-rule="evenodd" clip-rule="evenodd" d="M10.664 9.478a.662.662 0 0 1-.05.136.228.228 0 0 1 .05-.136Z" fill="#FFD8A7"/>
  <path fill-rule="evenodd" clip-rule="evenodd" d="M10.232 8.7c-.002.317.002.634.012.951 0 .008-.004.012-.012.012a10.128 10.128 0 0 1 0-.964Z" fill="#D75429"/>
  <path fill-rule="evenodd" clip-rule="evenodd" d="M10.232 9.663a2.09 2.09 0 0 0-.013.285.922.922 0 0 1-.006-.26.04.04 0 0 1 .019-.025Z" fill="#E3A2A8"/>
  <path fill-rule="evenodd" clip-rule="evenodd" d="M10.59 9.725c-.01.082-.014.164-.012.247a.43.43 0 0 1-.012-.105.31.31 0 0 1 .024-.142Z" fill="#FFD8A6"/>
  <path fill-rule="evenodd" clip-rule="evenodd" d="M10.578 9.997a.138.138 0 0 1 .025.087.138.138 0 0 1-.025-.087Z" fill="#FFD6A1"/>
  <path fill-rule="evenodd" clip-rule="evenodd" d="M10.244 10.108c.324.095.388.28.192.556a.38.38 0 0 1-.464.056.601.601 0 0 1-.148-.192.471.471 0 0 1 0-.21.299.299 0 0 1 .124-.123c0 .153.057.28.173.377.045.015.076 0 .092-.044a1.73 1.73 0 0 0 .031-.42Z" fill="#FEAE46"/>
  <path fill-rule="evenodd" clip-rule="evenodd" d="M9.626 10.01a.264.264 0 0 1 .031.074c.01.06.008.117-.006.173a.86.86 0 0 0-.025-.248Z" fill="#FFD49B"/>
  <path fill-rule="evenodd" clip-rule="evenodd" d="M9.824 10.318a.471.471 0 0 0 0 .21.028.028 0 0 1-.019-.012.698.698 0 0 1 0-.185.028.028 0 0 1 .019-.013Z" fill="#FFD195"/>
  <path fill-rule="evenodd" clip-rule="evenodd" d="M10.22 11.32a.138.138 0 0 0 .024.086c.01.004.015.012.013.025a.138.138 0 0 0 .024.086v.013a.088.088 0 0 0 .025.074c.02.105.044.208.074.309a.11.11 0 0 0 .037.074c.183.492.415.962.698 1.409a9.136 9.136 0 0 0 2.812 2.75c.825.523 1.707.927 2.645 1.21.012.01.014.02.006.031a4.5 4.5 0 0 0-2.206.402c-.218.11-.432.224-.643.346a8.717 8.717 0 0 1-2.756.964c-1.1.199-2.056-.081-2.867-.84a4.778 4.778 0 0 1-1.137-1.81 1.073 1.073 0 0 0-.062-.174.272.272 0 0 0-.037-.123.057.057 0 0 0-.012-.05.138.138 0 0 0-.025-.086 1.783 1.783 0 0 0-.05-.223 3.77 3.77 0 0 0-.061-.346.38.38 0 0 0-.012-.136 10.91 10.91 0 0 1 .012-.667c.057-.502.211-.971.463-1.41a7.385 7.385 0 0 1 1.873-2.044c.125-.086.253-.168.383-.248.383-.134.642-.008.778.377Z" fill="#FFAF45"/>
  <path fill-rule="evenodd" clip-rule="evenodd" d="M10.479 10.949a.272.272 0 0 1-.037.123.271.271 0 0 1 .037-.123Z" fill="#FFCD8D"/>
  <path fill-rule="evenodd" clip-rule="evenodd" d="M10.22 11.32a.138.138 0 0 1 .024.086.138.138 0 0 1-.025-.087Z" fill="#FFCA85"/>
  <path fill-rule="evenodd" clip-rule="evenodd" d="M10.257 11.43a.137.137 0 0 1 .024.087.138.138 0 0 1-.024-.086Z" fill="#FFD196"/>
  <path fill-rule="evenodd" clip-rule="evenodd" d="M10.442 11.418a.551.551 0 0 1 .037.173.547.547 0 0 1-.037-.173Z" fill="#FFD9A7"/>
  <path fill-rule="evenodd" clip-rule="evenodd" d="M10.281 11.53c.02.02.028.044.025.074a.088.088 0 0 1-.025-.075Z" fill="#FFD49B"/>
  <path fill-rule="evenodd" clip-rule="evenodd" d="M10.479 11.604c.02.02.028.044.025.074a.088.088 0 0 1-.025-.074Z" fill="#FFDBAC"/>
  <path fill-rule="evenodd" clip-rule="evenodd" d="M10.504 11.678c.037.092.07.186.099.284a.967.967 0 0 1-.1-.284Z" fill="#FFDCAF"/>
  <path fill-rule="evenodd" clip-rule="evenodd" d="M10.38 11.913a.11.11 0 0 1 .037.074.11.11 0 0 1-.037-.074Z" fill="#FFD9A8"/>
  <path fill-rule="evenodd" clip-rule="evenodd" d="M1.692 11.913c-.005.06-.013.117-.025.173a1.05 1.05 0 0 1 .007-.161.027.027 0 0 1 .018-.012Z" fill="#FFE7C8"/>
  <path fill-rule="evenodd" clip-rule="evenodd" d="M10.603 11.987a.11.11 0 0 1 .037.074.11.11 0 0 1-.037-.074Z" fill="#FFD59E"/>
  <path fill-rule="evenodd" clip-rule="evenodd" d="M10.739 12.32c.019.025.031.054.037.087a.087.087 0 0 1-.037-.087Z" fill="#FFE2BC"/>
  <path fill-rule="evenodd" clip-rule="evenodd" d="M10.9 12.679c.016.006.025.018.024.037-.018-.006-.026-.018-.025-.037ZM6.4 13.952c.002.019-.007.031-.024.037-.001-.02.007-.032.025-.037Z" fill="#FFD59F"/>
  <path fill-rule="evenodd" clip-rule="evenodd" d="M6.722 14.644c-.01.222-.015.444-.012.667a4.77 4.77 0 0 1-.007-.593.226.226 0 0 1 .019-.074Z" fill="#FFCF91"/>
  <path fill-rule="evenodd" clip-rule="evenodd" d="M5.87 15.336a.227.227 0 0 1-.038.099.154.154 0 0 1 .037-.1Z" fill="#FFCB88"/>
  <path fill-rule="evenodd" clip-rule="evenodd" d="M5.832 15.472c-.027.122-.06.242-.099.358.023-.116.05-.231.08-.346a.028.028 0 0 1 .02-.012Z" fill="#FFCB87"/>
  <path fill-rule="evenodd" clip-rule="evenodd" d="M6.722 15.447c.026.113.046.228.062.346a1.103 1.103 0 0 1-.062-.346Z" fill="#FFE0B9"/>
  <path fill-rule="evenodd" clip-rule="evenodd" d="M6.833 16.016a.137.137 0 0 1 .025.086.138.138 0 0 1-.025-.086Z" fill="#FFDBAD"/>
  <path fill-rule="evenodd" clip-rule="evenodd" d="M6.87 16.151a.272.272 0 0 1 .037.124.271.271 0 0 1-.037-.123Z" fill="#FFDEB3"/>
  <path fill-rule="evenodd" clip-rule="evenodd" d="M6.907 16.275c.026.055.046.113.062.173a.364.364 0 0 1-.062-.173Z" fill="#FFE4C2"/>
  <path fill-rule="evenodd" clip-rule="evenodd" d="M5.585 16.695a4.92 4.92 0 0 1-.05.346c.004-.111.015-.223.031-.333a.028.028 0 0 1 .019-.013Z" fill="#FFC882"/>
  <path fill-rule="evenodd" clip-rule="evenodd" d="M5.486 17.733a33.73 33.73 0 0 1-.025.767c-.002-.235 0-.47.007-.705a.162.162 0 0 1 .018-.062Z" fill="#FFD298"/>
</svg>
